<svg width="30" height="30" viewBox="0 0 30 30" fill="none" xmlns="http://www.w3.org/2000/svg">
<path fill-rule="evenodd" clip-rule="evenodd" d="M6.09992 2.81052C5.0459 2.69273 3.9539 2.69273 2.89988 2.81052C2.88031 2.81271 2.86093 2.82158 2.84501 2.83727C2.82947 2.8526 2.8234 2.86809 2.82187 2.88123C2.69609 3.95655 2.69609 5.04285 2.82187 6.11816C2.8234 6.13131 2.82947 6.14679 2.84501 6.16212C2.86093 6.17781 2.88031 6.18668 2.89988 6.18887C3.9539 6.30666 5.0459 6.30666 6.09992 6.18887C6.1195 6.18668 6.13886 6.17781 6.15479 6.16212C6.17033 6.14679 6.17641 6.13131 6.17794 6.11816C6.30371 5.04285 6.30371 3.95655 6.17794 2.88123C6.17641 2.86809 6.17033 2.8526 6.15479 2.83727C6.13886 2.82158 6.1195 2.81271 6.09992 2.81052ZM2.64997 0.574442C3.87008 0.438077 5.12972 0.438077 6.34984 0.574442C7.41833 0.693872 8.28577 1.53452 8.41271 2.61986C8.55878 3.86883 8.55878 5.13056 8.41271 6.37953C8.28577 7.46487 7.41833 8.30552 6.34984 8.42495C5.12972 8.56131 3.87008 8.56131 2.64997 8.42495C1.58147 8.30552 0.714037 7.46487 0.587092 6.37953C0.441022 5.13056 0.441022 3.86883 0.587092 2.61986C0.714037 1.53452 1.58147 0.693872 2.64997 0.574442Z" fill="#E2CE84"/>
<path fill-rule="evenodd" clip-rule="evenodd" d="M16.6 2.81052C15.5459 2.69273 14.4539 2.69273 13.3999 2.81052C13.3804 2.81271 13.361 2.82158 13.345 2.83727C13.3295 2.8526 13.3234 2.86809 13.3219 2.88123C13.1962 3.95655 13.1962 5.04285 13.3219 6.11816C13.3234 6.13131 13.3295 6.14679 13.345 6.16212C13.361 6.17781 13.3804 6.18668 13.3999 6.18887C14.4539 6.30666 15.5459 6.30666 16.6 6.18887C16.6195 6.18668 16.6388 6.17781 16.6549 6.16212C16.6703 6.14679 16.6765 6.13131 16.678 6.11816C16.8037 5.04285 16.8037 3.95655 16.678 2.88123C16.6765 2.86809 16.6703 2.8526 16.6549 2.83727C16.6388 2.82158 16.6195 2.81271 16.6 2.81052ZM13.15 0.574442C14.3701 0.438077 15.6298 0.438077 16.8499 0.574442C17.9183 0.693872 18.7858 1.53452 18.9127 2.61986C19.0588 3.86883 19.0588 5.13056 18.9127 6.37953C18.7858 7.46487 17.9183 8.30552 16.8499 8.42495C15.6298 8.56131 14.3701 8.56131 13.15 8.42495C12.0815 8.30552 11.214 7.46487 11.0871 6.37953C10.941 5.13056 10.941 3.86883 11.0871 2.61986C11.214 1.53452 12.0815 0.693872 13.15 0.574442Z" fill="#E2CE84"/>
<path fill-rule="evenodd" clip-rule="evenodd" d="M27.0999 2.81052C26.0459 2.69273 24.9539 2.69273 23.8998 2.81052C23.8803 2.81271 23.861 2.82158 23.8449 2.83727C23.8295 2.8526 23.8233 2.86809 23.8218 2.88123C23.6961 3.95655 23.6961 5.04285 23.8218 6.11816C23.8233 6.13131 23.8295 6.14679 23.8449 6.16212C23.861 6.17781 23.8803 6.18668 23.8998 6.18887C24.9539 6.30666 26.0459 6.30666 27.0999 6.18887C27.1194 6.18668 27.1388 6.17781 27.1548 6.16212C27.1703 6.14679 27.1764 6.13131 27.1779 6.11816C27.3036 5.04285 27.3036 3.95655 27.1779 2.88123C27.1764 2.86809 27.1703 2.8526 27.1548 2.83727C27.1388 2.82158 27.1194 2.81271 27.0999 2.81052ZM23.6499 0.574442C24.87 0.438077 26.1297 0.438077 27.3498 0.574442C28.4183 0.693872 29.2857 1.53452 29.4126 2.61986C29.5587 3.86883 29.5587 5.13056 29.4126 6.37953C29.2857 7.46487 28.4183 8.30552 27.3498 8.42495C26.1297 8.56131 24.87 8.56131 23.6499 8.42495C22.5815 8.30552 21.714 7.46487 21.5871 6.37953C21.441 5.13056 21.441 3.86883 21.5871 2.61986C21.714 1.53452 22.5815 0.693872 23.6499 0.574442Z" fill="#E2CE84"/>
<path fill-rule="evenodd" clip-rule="evenodd" d="M6.09992 13.3105C5.0459 13.1927 3.9539 13.1927 2.89988 13.3105C2.88031 13.3127 2.86093 13.3216 2.84501 13.3373C2.82947 13.3526 2.8234 13.3681 2.82187 13.3813C2.69609 14.4566 2.69609 15.5429 2.82187 16.6181C2.8234 16.6313 2.82947 16.6468 2.84501 16.6621C2.86093 16.6778 2.88031 16.6867 2.89988 16.6889C3.9539 16.8067 5.0459 16.8067 6.09992 16.6889C6.1195 16.6867 6.13886 16.6778 6.15479 16.6621C6.17033 16.6468 6.17641 16.6313 6.17794 16.6181C6.30371 15.5429 6.30371 14.4566 6.17794 13.3813C6.17641 13.3681 6.17033 13.3526 6.15479 13.3373C6.13886 13.3216 6.1195 13.3127 6.09992 13.3105ZM2.64997 11.0744C3.87008 10.9381 5.12972 10.9381 6.34984 11.0744C7.41833 11.1939 8.28577 12.0346 8.41271 13.1198C8.55878 14.3689 8.55878 15.6305 8.41271 16.8796C8.28577 17.9648 7.41833 18.8056 6.34984 18.925C5.12972 19.0613 3.87008 19.0613 2.64997 18.925C1.58147 18.8056 0.714037 17.9648 0.587092 16.8796C0.441022 15.6305 0.441022 14.3689 0.587092 13.1198C0.714037 12.0346 1.58147 11.1939 2.64997 11.0744Z" fill="#E2CE84"/>
<path fill-rule="evenodd" clip-rule="evenodd" d="M16.6 13.3105C15.5459 13.1927 14.4539 13.1927 13.3999 13.3105C13.3804 13.3127 13.361 13.3216 13.345 13.3373C13.3295 13.3526 13.3234 13.3681 13.3219 13.3813C13.1962 14.4566 13.1962 15.5429 13.3219 16.6181C13.3234 16.6313 13.3295 16.6468 13.345 16.6621C13.361 16.6778 13.3804 16.6867 13.3999 16.6889C14.4539 16.8067 15.5459 16.8067 16.6 16.6889C16.6195 16.6867 16.6388 16.6778 16.6549 16.6621C16.6703 16.6468 16.6765 16.6313 16.678 16.6181C16.8037 15.5429 16.8037 14.4566 16.678 13.3813C16.6765 13.3681 16.6703 13.3526 16.6549 13.3373C16.6388 13.3216 16.6195 13.3127 16.6 13.3105ZM13.15 11.0744C14.3701 10.9381 15.6298 10.9381 16.8499 11.0744C17.9183 11.1939 18.7858 12.0346 18.9127 13.1198C19.0588 14.3689 19.0588 15.6305 18.9127 16.8796C18.7858 17.9648 17.9183 18.8056 16.8499 18.925C15.6298 19.0613 14.3701 19.0613 13.15 18.925C12.0815 18.8056 11.214 17.9648 11.0871 16.8796C10.941 15.6305 10.941 14.3689 11.0871 13.1198C11.214 12.0346 12.0815 11.1939 13.15 11.0744Z" fill="#E2CE84"/>
<path fill-rule="evenodd" clip-rule="evenodd" d="M27.0999 13.3105C26.0459 13.1927 24.9539 13.1927 23.8998 13.3105C23.8803 13.3127 23.861 13.3216 23.8449 13.3373C23.8295 13.3526 23.8233 13.3681 23.8218 13.3813C23.6961 14.4566 23.6961 15.5429 23.8218 16.6181C23.8233 16.6313 23.8295 16.6468 23.8449 16.6621C23.861 16.6778 23.8803 16.6867 23.8998 16.6889C24.9539 16.8067 26.0459 16.8067 27.0999 16.6889C27.1194 16.6867 27.1388 16.6778 27.1548 16.6621C27.1703 16.6468 27.1764 16.6313 27.1779 16.6181C27.3036 15.5429 27.3036 14.4566 27.1779 13.3813C27.1764 13.3681 27.1703 13.3526 27.1548 13.3373C27.1388 13.3216 27.1194 13.3127 27.0999 13.3105ZM23.6499 11.0744C24.87 10.9381 26.1297 10.9381 27.3498 11.0744C28.4183 11.1939 29.2857 12.0346 29.4126 13.1198C29.5587 14.3689 29.5587 15.6305 29.4126 16.8796C29.2857 17.9648 28.4183 18.8056 27.3498 18.925C26.1297 19.0613 24.87 19.0613 23.6499 18.925C22.5815 18.8056 21.714 17.9648 21.5871 16.8796C21.441 15.6305 21.441 14.3689 21.5871 13.1198C21.714 12.0346 22.5815 11.1939 23.6499 11.0744Z" fill="#E2CE84"/>
<path fill-rule="evenodd" clip-rule="evenodd" d="M6.09992 23.8105C5.0459 23.6927 3.9539 23.6927 2.89988 23.8105C2.88031 23.8127 2.86093 23.8216 2.84501 23.8373C2.82947 23.8526 2.8234 23.8681 2.82187 23.8813C2.69609 24.9566 2.69609 26.0429 2.82187 27.1181C2.8234 27.1313 2.82947 27.1468 2.84501 27.1621C2.86093 27.1778 2.88031 27.1867 2.89988 27.1889C3.9539 27.3067 5.0459 27.3067 6.09992 27.1889C6.1195 27.1867 6.13886 27.1778 6.15479 27.1621C6.17033 27.1468 6.17641 27.1313 6.17794 27.1181C6.30371 26.0429 6.30371 24.9566 6.17794 23.8813C6.17641 23.8681 6.17033 23.8526 6.15479 23.8373C6.13886 23.8216 6.1195 23.8127 6.09992 23.8105ZM2.64997 21.5744C3.87008 21.4381 5.12972 21.4381 6.34984 21.5744C7.41833 21.6938 8.28577 22.5346 8.41271 23.6198C8.55878 24.8689 8.55878 26.1305 8.41271 27.3796C8.28577 28.4648 7.41833 29.3056 6.34984 29.425C5.12972 29.5613 3.87008 29.5613 2.64997 29.425C1.58147 29.3056 0.714037 28.4648 0.587092 27.3796C0.441022 26.1305 0.441022 24.8689 0.587092 23.6198C0.714037 22.5346 1.58147 21.6938 2.64997 21.5744Z" fill="#E2CE84"/>
<path fill-rule="evenodd" clip-rule="evenodd" d="M16.6 23.8105C15.5459 23.6927 14.4539 23.6927 13.3999 23.8105C13.3804 23.8127 13.361 23.8216 13.345 23.8373C13.3295 23.8526 13.3234 23.8681 13.3219 23.8813C13.1962 24.9566 13.1962 26.0429 13.3219 27.1181C13.3234 27.1313 13.3295 27.1468 13.345 27.1621C13.361 27.1778 13.3804 27.1867 13.3999 27.1889C14.4539 27.3067 15.5459 27.3067 16.6 27.1889C16.6195 27.1867 16.6388 27.1778 16.6549 27.1621C16.6703 27.1468 16.6765 27.1313 16.678 27.1181C16.8037 26.0429 16.8037 24.9566 16.678 23.8813C16.6765 23.8681 16.6703 23.8526 16.6549 23.8373C16.6388 23.8216 16.6195 23.8127 16.6 23.8105ZM13.15 21.5744C14.3701 21.4381 15.6298 21.4381 16.8499 21.5744C17.9183 21.6938 18.7858 22.5346 18.9127 23.6198C19.0588 24.8689 19.0588 26.1305 18.9127 27.3796C18.7858 28.4648 17.9183 29.3056 16.8499 29.425C15.6298 29.5613 14.3701 29.5613 13.15 29.425C12.0815 29.3056 11.214 28.4648 11.0871 27.3796C10.941 26.1305 10.941 24.8689 11.0871 23.6198C11.214 22.5346 12.0815 21.6938 13.15 21.5744Z" fill="#E2CE84"/>
<path fill-rule="evenodd" clip-rule="evenodd" d="M27.0999 23.8105C26.0459 23.6927 24.9539 23.6927 23.8998 23.8105C23.8803 23.8127 23.861 23.8216 23.8449 23.8373C23.8295 23.8526 23.8233 23.8681 23.8218 23.8813C23.6961 24.9566 23.6961 26.0429 23.8218 27.1181C23.8233 27.1313 23.8295 27.1468 23.8449 27.1621C23.861 27.1778 23.8803 27.1867 23.8998 27.1889C24.9539 27.3067 26.0459 27.3067 27.0999 27.1889C27.1194 27.1867 27.1388 27.1778 27.1548 27.1621C27.1703 27.1468 27.1764 27.1313 27.1779 27.1181C27.3036 26.0429 27.3036 24.9566 27.1779 23.8813C27.1764 23.8681 27.1703 23.8526 27.1548 23.8373C27.1388 23.8216 27.1194 23.8127 27.0999 23.8105ZM23.6499 21.5744C24.87 21.4381 26.1297 21.4381 27.3498 21.5744C28.4183 21.6938 29.2857 22.5346 29.4126 23.6198C29.5587 24.8689 29.5587 26.1305 29.4126 27.3796C29.2857 28.4648 28.4183 29.3056 27.3498 29.425C26.1297 29.5613 24.87 29.5613 23.6499 29.425C22.5815 29.3056 21.714 28.4648 21.5871 27.3796C21.441 26.1305 21.441 24.8689 21.5871 23.6198C21.714 22.5346 22.5815 21.6938 23.6499 21.5744Z" fill="#E2CE84"/>
</svg>
