<svg width="35" height="24" viewBox="0 0 35 24" fill="none" xmlns="http://www.w3.org/2000/svg">
<path fill-rule="evenodd" clip-rule="evenodd" d="M28.9692 0.268942L17.0792 0L5.18923 0.268942C2.98599 0.318778 1.12049 1.90873 0.722116 4.07622C-0.240705 9.31487 -0.240705 14.6851 0.722116 19.9237C1.12049 22.0913 2.98599 23.6812 5.18923 23.731L17.0792 24L28.9692 23.731C31.1725 23.6812 33.038 22.0913 33.4364 19.9237C34.3992 14.6851 34.3992 9.31487 33.4364 4.07622C33.038 1.90871 31.1725 0.318778 28.9692 0.268942ZM5.24537 2.75099L17.0792 2.48332L28.9131 2.75099C29.9397 2.77421 30.8089 3.51505 30.9946 4.52501C31.2483 5.90537 31.431 7.29541 31.5431 8.68973H2.6154C2.72737 7.29541 2.91021 5.90537 3.16391 4.52501C3.34953 3.51505 4.21876 2.77421 5.24537 2.75099ZM2.48269 12C2.48269 14.502 2.70976 17.0039 3.16391 19.475C3.34953 20.485 4.21876 21.2258 5.24537 21.249L17.0792 21.5166L28.9131 21.249C29.9397 21.2258 30.8089 20.485 30.9946 19.475C31.4487 17.0039 31.6758 14.502 31.6758 12H2.48269Z" fill="white"/>
</svg>
