<svg width="26" height="26" viewBox="0 0 26 26" fill="none" xmlns="http://www.w3.org/2000/svg">
<path fill-rule="evenodd" clip-rule="evenodd" d="M2.06569 17.264C-1.26398 9.49748 4.7486 1 13.5736 1H14.0497C20.6497 1 26 6.08435 26 12.3562C26 19.3392 20.043 25 12.6948 25H1.11099C0.639585 25 0.219486 24.7172 0.0630363 24.2946C-0.0934287 23.8721 0.047809 23.4016 0.415368 23.1211L3.33565 20.8924C3.46335 20.795 3.50851 20.6295 3.44671 20.4853L2.06569 17.264ZM13.5736 3.11133C6.32657 3.11133 1.38908 10.0895 4.12338 16.4673L5.5044 19.6886C5.93693 20.6975 5.62075 21.8565 4.72694 22.5387L4.26856 22.8885H12.6948C18.8159 22.8885 23.7781 18.1729 23.7781 12.356C23.7781 7.25036 19.4227 3.11133 14.0497 3.11133H13.5736Z" fill="#DCC27E"/>
</svg>
