<svg width="22" height="6" viewBox="0 0 22 6" fill="none" xmlns="http://www.w3.org/2000/svg">
<path d="M3 0.5C1.61928 0.5 0.5 1.61933 0.5 3C0.5 4.38067 1.61928 5.5 3 5.5C4.38072 5.5 5.5 4.38067 5.5 3C5.5 1.61933 4.38072 0.5 3 0.5Z" fill="black"/>
<path d="M8.5 3C8.5 1.61933 9.61933 0.5 11 0.5C12.3807 0.5 13.5 1.61933 13.5 3C13.5 4.38067 12.3807 5.5 11 5.5C9.61933 5.5 8.5 4.38067 8.5 3Z" fill="black"/>
<path d="M16.5 3C16.5 1.61933 17.6193 0.5 19 0.5C20.3807 0.5 21.5 1.61933 21.5 3C21.5 4.38067 20.3807 5.5 19 5.5C17.6193 5.5 16.5 4.38067 16.5 3Z" fill="black"/>
</svg>
