<svg width="26" height="26" viewBox="0 0 26 26" fill="none" xmlns="http://www.w3.org/2000/svg">
<path d="M12.9998 11.1943C13.5981 11.1943 14.0832 11.6794 14.0832 12.2777V19.4999C14.0832 20.0982 13.5981 20.5832 12.9998 20.5832C12.4015 20.5832 11.9165 20.0982 11.9165 19.4999V12.2777C11.9165 11.6794 12.4015 11.1943 12.9998 11.1943Z" fill="#DCC27E"/>
<path d="M13.0001 8.66672C13.7979 8.66672 14.4446 8.02001 14.4446 7.22228C14.4446 6.42454 13.7979 5.77783 13.0001 5.77783C12.2023 5.77783 11.5557 6.42454 11.5557 7.22228C11.5557 8.02001 12.2023 8.66672 13.0001 8.66672Z" fill="#DCC27E"/>
<path fill-rule="evenodd" clip-rule="evenodd" d="M0.361328 13C0.361328 6.01971 6.01995 0.361084 13.0002 0.361084C19.9805 0.361084 25.6391 6.01971 25.6391 13C25.6391 19.9803 19.9805 25.6389 13.0002 25.6389C6.01995 25.6389 0.361328 19.9803 0.361328 13ZM13.0002 2.52775C7.21657 2.52775 2.52799 7.21633 2.52799 13C2.52799 18.7837 7.21657 23.4722 13.0002 23.4722C18.7839 23.4722 23.4724 18.7837 23.4724 13C23.4724 7.21633 18.7839 2.52775 13.0002 2.52775Z" fill="#DCC27E"/>
</svg>
