<svg width="14" height="23" viewBox="0 0 14 23" fill="none" xmlns="http://www.w3.org/2000/svg">
<path fill-rule="evenodd" clip-rule="evenodd" d="M5.16046 2.05594C6.29275 0.923686 7.82835 0.287598 9.42961 0.287598H12.5346C13.0109 0.287598 13.3971 0.673756 13.3971 1.1501V5.2901C13.3971 5.76644 13.0109 6.1526 12.5346 6.1526H9.42961C9.38384 6.1526 9.34002 6.17077 9.30759 6.20312C9.27528 6.23547 9.25711 6.27935 9.25711 6.3251V8.5676H12.5346C12.8003 8.5676 13.051 8.68996 13.2145 8.8993C13.3779 9.10865 13.4357 9.38157 13.3713 9.63928L12.3363 13.7793C12.2403 14.1633 11.8954 14.4326 11.4996 14.4326H9.25711V21.8501C9.25711 22.3264 8.87094 22.7126 8.39461 22.7126H4.25461C3.77827 22.7126 3.39211 22.3264 3.39211 21.8501V14.4326H1.14961C0.673268 14.4326 0.287109 14.0464 0.287109 13.5701V9.4301C0.287109 8.95376 0.673268 8.5676 1.14961 8.5676H3.39211V6.3251C3.39211 4.72385 4.0282 3.1882 5.16046 2.05594ZM9.42961 2.0126C8.28582 2.0126 7.18895 2.46695 6.38015 3.2757C5.57147 4.08445 5.11711 5.18135 5.11711 6.3251V9.4301C5.11711 9.90643 4.73094 10.2926 4.25461 10.2926H2.01211V12.7076H4.25461C4.73094 12.7076 5.11711 13.0938 5.11711 13.5701V20.9876H7.53211V13.5701C7.53211 13.0938 7.91828 12.7076 8.39461 12.7076H10.8262L11.4299 10.2926H8.39461C7.91828 10.2926 7.53211 9.90643 7.53211 9.4301V6.3251C7.53211 5.82185 7.73198 5.33921 8.0879 4.98336C8.44371 4.62751 8.92637 4.4276 9.42961 4.4276H11.6721V2.0126H9.42961Z" fill="#DEC27F"/>
</svg>
