<svg width="26" height="26" viewBox="0 0 26 26" fill="none" xmlns="http://www.w3.org/2000/svg">
<path d="M8.95726 17.4236C8.2446 17.5108 7.73754 18.1591 7.82469 18.8718C7.91184 19.5844 8.56023 20.0915 9.27289 20.0043C9.98555 19.9172 10.4926 19.2688 10.4055 18.5561C10.3183 17.8435 9.66992 17.3365 8.95726 17.4236Z" fill="#DCC27E"/>
<path d="M4.61229 14.0258C4.52512 13.3132 5.0322 12.6647 5.74486 12.5776C6.45752 12.4904 7.1059 12.9975 7.19306 13.7102C7.28021 14.4229 6.77313 15.0712 6.06047 15.1584C5.34781 15.2455 4.69944 14.7385 4.61229 14.0258Z" fill="#DCC27E"/>
<path d="M7.69456 7.10057C6.9819 7.18772 6.47484 7.83611 6.56199 8.54877C6.64914 9.26143 7.29752 9.76849 8.01019 9.68134C8.72285 9.59419 9.22992 8.94581 9.14276 8.23314C9.05561 7.52048 8.40722 7.01341 7.69456 7.10057Z" fill="#DCC27E"/>
<path d="M17.8066 9.46551C17.7195 8.75285 18.2265 8.10447 18.9392 8.01731C19.6518 7.93016 20.3003 8.43724 20.3874 9.1499C20.4745 9.86256 19.9675 10.511 19.2548 10.5981C18.5422 10.6853 17.8937 10.1782 17.8066 9.46551Z" fill="#DCC27E"/>
<path d="M12.9904 11.5422C12.2778 11.6294 11.7708 12.2777 11.8579 12.9904C11.945 13.7031 12.5934 14.2102 13.3061 14.123C14.0187 14.0359 14.5259 13.3874 14.4386 12.6748C14.3515 11.9621 13.7031 11.4551 12.9904 11.5422Z" fill="#DCC27E"/>
<path d="M12.2109 6.54803C12.1237 5.83537 12.6308 5.18699 13.3435 5.09983C14.0562 5.01268 14.7045 5.51976 14.7917 6.23242C14.8788 6.94508 14.3718 7.59345 13.6591 7.68061C12.9465 7.76776 12.298 7.26069 12.2109 6.54803Z" fill="#DCC27E"/>
<path fill-rule="evenodd" clip-rule="evenodd" d="M0.328993 12.6928C0.498643 5.69471 6.30929 0.159099 13.3074 0.328749C20.3056 0.498399 25.8412 6.30903 25.6716 13.3072C25.6608 13.7504 25.5118 14.1553 25.2374 14.4887C24.9749 14.8076 24.635 15.0166 24.2997 15.1566C23.647 15.4291 22.829 15.5145 22.0195 15.52C18.5242 15.5436 15.4883 18.55 15.2899 22.0957C15.2435 22.9231 15.1025 23.7644 14.7465 24.4256C14.5622 24.7679 14.3032 25.0935 13.9405 25.3294C13.5692 25.5708 13.1435 25.6822 12.693 25.6713C5.69495 25.5016 0.159343 19.691 0.328993 12.6928ZM13.2602 2.27818C7.33867 2.13463 2.42197 6.8186 2.27842 12.7402C2.13487 18.6617 6.81884 23.5784 12.7404 23.7219C12.8289 23.724 12.8617 23.705 12.8776 23.6945C12.9023 23.6785 12.9597 23.631 13.0296 23.501C13.1821 23.2178 13.302 22.7184 13.3429 21.9868C13.5956 17.4694 17.4261 13.601 22.0064 13.5701C22.737 13.5651 23.2498 13.4818 23.5484 13.3571C23.6539 13.3131 23.7033 13.2759 23.7221 13.259C23.8651 7.33787 19.1813 2.42171 13.2602 2.27818Z" fill="#DCC27E"/>
</svg>
