<svg width="26" height="26" viewBox="0 0 26 26" fill="none" xmlns="http://www.w3.org/2000/svg">
<path fill-rule="evenodd" clip-rule="evenodd" d="M12.9999 13.5356C12.1571 13.5356 11.474 14.2224 11.474 15.0697C11.474 15.9169 12.1571 16.6038 12.9999 16.6038C13.8427 16.6038 14.5258 15.9169 14.5258 15.0697C14.5258 14.2224 13.8427 13.5356 12.9999 13.5356ZM9.64307 15.0698C9.64307 13.2058 11.146 11.6948 13 11.6948C14.8541 11.6948 16.357 13.2058 16.357 15.0698C16.357 16.9338 14.8541 18.4448 13 18.4448C11.146 18.4448 9.64307 16.9338 9.64307 15.0698Z" fill="#DCC27E"/>
<path fill-rule="evenodd" clip-rule="evenodd" d="M13.0001 8.62655C11.7326 8.62655 10.4935 9.00443 9.43957 9.71242C8.38566 10.4204 7.56424 11.4267 7.07918 12.604C6.59411 13.7814 6.46719 15.0769 6.71447 16.3267C6.96175 17.5766 7.57214 18.7247 8.46841 19.6258C8.82596 19.9852 8.82596 20.5681 8.46841 20.9274C8.11087 21.2869 7.53119 21.2869 7.17365 20.9274C6.02129 19.7689 5.23652 18.2928 4.91858 16.6858C4.60065 15.079 4.76382 13.4133 5.38748 11.8996C6.01114 10.3858 7.06725 9.09203 8.42228 8.18177C9.77732 7.2715 11.3704 6.78564 13.0001 6.78564C14.6297 6.78564 16.2229 7.2715 17.5779 8.18177C18.9329 9.09203 19.989 10.3858 20.6127 11.8996C21.2364 13.4133 21.3996 15.079 21.0816 16.6858C20.7637 18.2928 19.9789 19.7689 18.8266 20.9274C18.469 21.2869 17.8893 21.2869 17.5317 20.9274C17.1742 20.5681 17.1742 19.9852 17.5317 19.6258C18.428 18.7247 19.0385 17.5766 19.2857 16.3267C19.533 15.0769 19.406 13.7814 18.921 12.604C18.4359 11.4267 17.6145 10.4204 16.5605 9.71242C15.5067 9.00443 14.2677 8.62655 13.0001 8.62655Z" fill="#DCC27E"/>
<path fill-rule="evenodd" clip-rule="evenodd" d="M13 3.84091C10.791 3.84091 8.63159 4.49948 6.79488 5.73333C4.95815 6.96718 3.52661 8.72089 2.68125 10.7727C1.83591 12.8245 1.61473 15.0822 2.04569 17.2605C2.47664 19.4387 3.54037 21.4395 5.10237 23.0099C5.45992 23.3693 5.45992 23.9521 5.10237 24.3116C4.74483 24.671 4.16515 24.671 3.80761 24.3116C1.98953 22.4838 0.7514 20.1549 0.249796 17.6196C-0.251807 15.0843 0.00562904 12.4564 0.989562 10.0682C1.97351 7.68003 3.63974 5.63879 5.77758 4.20266C7.91542 2.76653 10.4288 2 13 2C15.5711 2 18.0845 2.76653 20.2224 4.20266C22.3602 5.63879 24.0265 7.68003 25.0104 10.0682C25.9944 12.4564 26.2518 15.0843 25.7501 17.6196C25.2485 20.1549 24.0105 22.4838 22.1924 24.3116C21.8348 24.671 21.2551 24.671 20.8975 24.3116C20.54 23.9521 20.54 23.3693 20.8975 23.0099C22.4596 21.4395 23.5233 19.4387 23.9543 17.2605C24.3853 15.0822 24.1641 12.8245 23.3187 10.7727C22.4734 8.72089 21.0418 6.96718 19.2051 5.73333C17.3683 4.49948 15.209 3.84091 13 3.84091Z" fill="#DCC27E"/>
</svg>
