<svg width="17" height="18" viewBox="0 0 17 18" fill="none" xmlns="http://www.w3.org/2000/svg">
<path d="M8.47656 7.75C8.89076 7.75 9.22656 8.0858 9.22656 8.5V13.5C9.22656 13.9142 8.89076 14.25 8.47656 14.25C8.06236 14.25 7.72656 13.9142 7.72656 13.5V8.5C7.72656 8.0858 8.06236 7.75 8.47656 7.75Z" fill="#DEC27F"/>
<path d="M8.47656 6C9.02886 6 9.47656 5.55228 9.47656 5C9.47656 4.44771 9.02886 4 8.47656 4C7.92426 4 7.47656 4.44771 7.47656 5C7.47656 5.55228 7.92426 6 8.47656 6Z" fill="#DEC27F"/>
<path fill-rule="evenodd" clip-rule="evenodd" d="M3.79305 0.76882C6.88062 0.42374 10.072 0.42374 13.1595 0.76882C14.9859 0.97294 16.4608 2.41159 16.6757 4.24855C17.0449 7.40546 17.0449 10.5947 16.6757 13.7516C16.4608 15.5886 14.9859 17.0272 13.1595 17.2314C10.072 17.5764 6.88062 17.5764 3.79305 17.2314C1.96667 17.0272 0.491773 15.5886 0.276922 13.7516C-0.0923075 10.5947 -0.0923075 7.40546 0.276922 4.24855C0.491773 2.41159 1.96667 0.97294 3.79305 0.76882ZM12.9929 2.25954C10.0161 1.92683 6.93652 1.92683 3.95966 2.25954C2.81523 2.38744 1.89918 3.29069 1.76677 4.4228C1.41108 7.46396 1.41108 10.5362 1.76677 13.5774C1.89918 14.7095 2.81523 15.6127 3.95966 15.7406C6.93652 16.0733 10.0161 16.0733 12.9929 15.7406C14.1374 15.6127 15.0534 14.7095 15.1858 13.5774C15.5415 10.5362 15.5415 7.46396 15.1858 4.4228C15.0534 3.29069 14.1374 2.38744 12.9929 2.25954Z" fill="#DEC27F"/>
</svg>
