<svg width="23" height="23" viewBox="0 0 23 23" fill="none" xmlns="http://www.w3.org/2000/svg">
<path d="M16.0996 5.7501C16.0996 5.11496 16.6145 4.6001 17.2496 4.6001C17.8848 4.6001 18.3996 5.11496 18.3996 5.7501C18.3996 6.38522 17.8848 6.9001 17.2496 6.9001C16.6145 6.9001 16.0996 6.38522 16.0996 5.7501Z" fill="#DEC27F"/>
<path fill-rule="evenodd" clip-rule="evenodd" d="M11.4996 6.0376C8.48276 6.0376 6.03711 8.48323 6.03711 11.5C6.03711 14.517 8.48276 16.9625 11.4996 16.9625C14.5165 16.9625 16.9621 14.517 16.9621 11.5C16.9621 8.48323 14.5165 6.0376 11.4996 6.0376ZM7.76211 11.5C7.76211 9.4359 9.43547 7.7626 11.4996 7.7626C13.5637 7.7626 15.2371 9.4359 15.2371 11.5C15.2371 13.5643 13.5637 15.2375 11.4996 15.2375C9.43547 15.2375 7.76211 13.5643 7.76211 11.5Z" fill="#DEC27F"/>
<path fill-rule="evenodd" clip-rule="evenodd" d="M17.547 0.957946C13.5604 0.51239 9.43953 0.51239 5.45302 0.957946C3.13915 1.21656 1.27117 3.03932 0.999142 5.36523C0.522421 9.4412 0.522421 13.5588 0.999142 17.6347C1.27117 19.9606 3.13915 21.7835 5.45302 22.042C9.43953 22.4876 13.5604 22.4876 17.547 22.042C19.8608 21.7835 21.7288 19.9606 22.0009 17.6347C22.4775 13.5588 22.4775 9.4412 22.0009 5.36523C21.7288 3.03932 19.8608 1.21656 17.547 0.957946ZM5.64462 2.67227C9.50382 2.24094 13.4962 2.24094 17.3553 2.67227C18.8851 2.84323 20.1103 4.05028 20.2876 5.56562C20.7487 9.50847 20.7487 13.4915 20.2876 17.4344C20.1103 18.9496 18.8851 20.1568 17.3553 20.3277C13.4962 20.759 9.50382 20.759 5.64462 20.3277C4.115 20.1568 2.88968 18.9496 2.71246 17.4344C2.25131 13.4915 2.25131 9.50847 2.71246 5.56562C2.88968 4.05028 4.115 2.84323 5.64462 2.67227Z" fill="#DEC27F"/>
</svg>
