<svg width="26" height="26" viewBox="0 0 26 26" fill="none" xmlns="http://www.w3.org/2000/svg">
<path d="M14.9502 10.0749C14.9502 9.53638 14.5137 9.09985 13.9752 9.09985H6.1752C5.63672 9.09985 5.2002 9.53638 5.2002 10.0749C5.2002 10.6134 5.63672 11.0499 6.1752 11.0499H13.9752C14.5137 11.0499 14.9502 10.6134 14.9502 10.0749Z" fill="#DCC27E"/>
<path d="M13.6502 13.975C13.6502 13.4364 13.2137 13 12.6752 13H6.1752C5.63672 13 5.2002 13.4364 5.2002 13.975C5.2002 14.5135 5.63672 14.95 6.1752 14.95H12.6752C13.2137 14.95 13.6502 14.5135 13.6502 13.975Z" fill="#DCC27E"/>
<path d="M13.9752 16.8999C14.5137 16.8999 14.9502 17.3363 14.9502 17.8749C14.9502 18.4134 14.5137 18.8499 13.9752 18.8499H6.1752C5.63672 18.8499 5.2002 18.4134 5.2002 17.8749C5.2002 17.3363 5.63672 16.8999 6.1752 16.8999H13.9752Z" fill="#DCC27E"/>
<path fill-rule="evenodd" clip-rule="evenodd" d="M5.2002 25.6751H22.1002C24.0746 25.6751 25.6752 24.0744 25.6752 22.1001V14.9501C25.6752 14.4115 25.2387 13.9751 24.7002 13.9751H20.4752V3.82622C20.4752 1.9758 18.3836 0.899436 16.8778 1.97498L16.6503 2.13752C15.6357 2.86225 14.2613 2.85982 13.2419 2.13168C11.5469 0.920951 9.25352 0.920951 7.55849 2.13168C6.53909 2.85982 5.16471 2.86225 4.15007 2.13752L3.92252 1.97498C2.41677 0.899436 0.325195 1.9758 0.325195 3.82622V20.8001C0.325195 23.4924 2.5078 25.6751 5.2002 25.6751ZM8.6919 3.71846C9.70892 2.99202 11.0915 2.99202 12.1085 3.71846C13.8011 4.92749 16.0863 4.93673 17.7837 3.7243L18.0113 3.56176C18.2265 3.40811 18.5252 3.56187 18.5252 3.82622V22.1001C18.5252 22.6853 18.6657 23.2375 18.9151 23.7251H5.2002C3.58476 23.7251 2.2752 22.4155 2.2752 20.8001V3.82622C2.2752 3.56187 2.57399 3.40811 2.7891 3.56176L3.01666 3.7243C4.71406 4.93673 6.99927 4.92749 8.6919 3.71846ZM20.4752 22.1001V15.9251H23.7252V22.1001C23.7252 22.9975 22.9977 23.7251 22.1002 23.7251C21.2027 23.7251 20.4752 22.9975 20.4752 22.1001Z" fill="#DCC27E"/>
</svg>
