<svg width="18" height="23" viewBox="0 0 18 23" fill="none" xmlns="http://www.w3.org/2000/svg">
<g opacity="0.56">
<path fill-rule="evenodd" clip-rule="evenodd" d="M3.80244 6.62193L4.19696 10.1726L3.39861 10.2363C2.28529 10.3252 1.37622 11.1622 1.19575 12.2643C0.779803 14.8046 0.779803 17.3955 1.19575 19.9358C1.37622 21.0379 2.28529 21.8748 3.39861 21.9637L5.11916 22.1011C7.83559 22.3179 10.565 22.3179 13.2815 22.1011L15.002 21.9637C16.1154 21.8748 17.0244 21.0379 17.2049 19.9358C17.6208 17.3955 17.6208 14.8046 17.2049 12.2643C17.0244 11.1622 16.1154 10.3252 15.002 10.2363L14.2036 10.1726L14.5981 6.62192C14.6446 6.20335 14.6446 5.78091 14.5981 5.36233L14.5719 5.12671C14.2942 2.62731 12.3293 0.649703 9.83176 0.355866C9.41224 0.306508 8.98835 0.306508 8.56883 0.355866C6.07123 0.649703 4.10633 2.6273 3.82863 5.1267L3.80244 5.36233C3.75593 5.78091 3.75593 6.20335 3.80244 6.62193ZM9.63017 2.06906C9.34462 2.03545 9.05597 2.03545 8.77031 2.06906C7.06992 2.2691 5.73215 3.61553 5.54307 5.3172L5.51689 5.55283C5.48445 5.84479 5.48445 6.13946 5.51689 6.43143L5.918 10.0415C8.10389 9.90131 10.2966 9.90131 12.4825 10.0415L12.8836 6.43143C12.9161 6.13946 12.9161 5.84479 12.8836 5.55283L12.8575 5.3172C12.6684 3.61553 11.3307 2.2691 9.63017 2.06906ZM9.2003 14.375C8.24764 14.375 7.4753 15.1474 7.4753 16.1C7.4753 17.0527 8.24764 17.825 9.2003 17.825C10.153 17.825 10.9253 17.0527 10.9253 16.1C10.9253 15.1474 10.153 14.375 9.2003 14.375Z" fill="white"/>
</g>
</svg>
