<svg width="26" height="26" viewBox="0 0 26 26" fill="none" xmlns="http://www.w3.org/2000/svg">
<path d="M10.1109 7.341C10.1109 7.07704 9.8373 6.90387 9.60795 7.03455C7.53583 8.21526 6.13867 10.4445 6.13867 13C6.13867 16.7894 9.2105 19.8611 12.9998 19.8611C16.7891 19.8611 19.8609 16.7894 19.8609 13C19.8609 10.4445 18.4637 8.21526 16.3916 7.03455C16.1622 6.90387 15.8887 7.07703 15.8887 7.341V9.12339C15.8887 9.23451 15.9404 9.3388 16.0253 9.41045C17.046 10.2716 17.6942 11.56 17.6942 13C17.6942 15.5926 15.5924 17.6944 12.9998 17.6944C10.4071 17.6944 8.30534 15.5926 8.30534 13C8.30534 11.56 8.95362 10.2716 9.97424 9.41045C10.0592 9.3388 10.1109 9.23451 10.1109 9.12339V7.341Z" fill="#DCC27E"/>
<path d="M14.0832 5.77767C14.0832 5.17937 13.5981 4.69434 12.9998 4.69434C12.4015 4.69434 11.9165 5.17937 11.9165 5.77767V12.9999C11.9165 13.5982 12.4015 14.0832 12.9998 14.0832C13.5981 14.0832 14.0832 13.5982 14.0832 12.9999V5.77767Z" fill="#DCC27E"/>
<path fill-rule="evenodd" clip-rule="evenodd" d="M0.361328 13C0.361328 6.01971 6.01995 0.361084 13.0002 0.361084C19.9805 0.361084 25.6391 6.01971 25.6391 13C25.6391 19.9803 19.9805 25.6389 13.0002 25.6389C6.01995 25.6389 0.361328 19.9803 0.361328 13ZM13.0002 2.52775C7.21657 2.52775 2.52799 7.21633 2.52799 13C2.52799 18.7837 7.21657 23.4722 13.0002 23.4722C18.7839 23.4722 23.4724 18.7837 23.4724 13C23.4724 7.21633 18.7839 2.52775 13.0002 2.52775Z" fill="#DCC27E"/>
</svg>
