<svg width="20" height="18" viewBox="0 0 20 18" fill="none" xmlns="http://www.w3.org/2000/svg">
<path fill-rule="evenodd" clip-rule="evenodd" d="M8.48635 1.11413C9.16075 -0.0481395 10.8392 -0.0481296 11.5136 1.11413L13.579 4.67349C13.7694 5.00158 14.0984 5.22547 14.4735 5.28212L17.9031 5.80012C19.3981 6.02592 19.9225 7.91354 18.7582 8.87804L16.2593 10.9484C15.9086 11.2389 15.7437 11.6973 15.8289 12.1448L16.5289 15.8207C16.8031 17.2607 15.2914 18.3795 13.9944 17.6965L10.5824 15.9C10.2178 15.708 9.78215 15.708 9.41755 15.9L6.00554 17.6965C4.70853 18.3795 3.1969 17.2607 3.4711 15.8207L4.17108 12.1448C4.25628 11.6973 4.09136 11.2389 3.74062 10.9484L1.24172 8.87804C0.0774317 7.91354 0.601842 6.02592 2.09683 5.80012L5.52648 5.28212C5.90154 5.22547 6.23059 5.00158 6.42096 4.67349L8.48635 1.11413ZM10.2162 1.86696C10.1199 1.70092 9.88005 1.70092 9.78375 1.86696L7.71836 5.42632C7.29954 6.14811 6.57563 6.64067 5.75049 6.76529L2.32085 7.28334C2.10728 7.31554 2.03236 7.58524 2.19869 7.72304L4.69759 9.79334C5.46922 10.4326 5.83205 11.441 5.6446 12.4253L4.94462 16.1013C4.90545 16.307 5.12139 16.4669 5.30668 16.3693L8.71875 14.5727C9.52065 14.1504 10.4793 14.1504 11.2812 14.5727L14.6933 16.3693C14.8786 16.4669 15.0945 16.307 15.0553 16.1013L14.3554 12.4253C14.1679 11.441 14.5307 10.4326 15.3024 9.79334L17.8013 7.72304C17.9676 7.58524 17.8927 7.31554 17.6791 7.28334L14.2495 6.76529C13.4243 6.64067 12.7004 6.14811 12.2816 5.42632L10.2162 1.86696Z" fill="#DEC27F"/>
</svg>
