<svg width="26" height="26" viewBox="0 0 26 26" fill="none" xmlns="http://www.w3.org/2000/svg">
<path fill-rule="evenodd" clip-rule="evenodd" d="M12.7676 2.16075C8.60016 2.16075 5.36706 4.77077 4.81529 7.94646H7.62479C8.15735 7.94646 8.58908 8.37819 8.58908 8.91075V17.9107C8.58908 18.4433 8.15735 18.875 7.62479 18.875H3.76765C1.81493 18.875 0.231934 17.2921 0.231934 15.3393V11.4822C0.231934 9.84721 1.34165 8.47145 2.84897 8.06699C3.33941 3.56165 7.71968 0.232178 12.7676 0.232178C17.8156 0.232178 22.1959 3.56165 22.6863 8.067C24.1937 8.47145 25.3034 9.84721 25.3034 11.4822V15.3393C25.3034 16.9789 24.1875 18.3578 22.6737 18.7579C22.2612 21.7298 19.7102 24.0179 16.6248 24.0179H15.1521C14.7707 24.9603 13.8467 25.625 12.7676 25.625C11.3474 25.625 10.1962 24.4738 10.1962 23.0536C10.1962 21.6334 11.3474 20.4822 12.7676 20.4822C13.8467 20.4822 14.7707 21.1469 15.1521 22.0893H16.6248C18.6007 22.0893 20.2563 20.718 20.6916 18.875H17.9105C17.378 18.875 16.9462 18.4433 16.9462 17.9107V8.91075C16.9462 8.37819 17.378 7.94646 17.9105 7.94646H20.72C20.1682 4.77077 16.9352 2.16075 12.7676 2.16075ZM3.76765 9.87504C2.88004 9.87504 2.16051 10.5945 2.16051 11.4822V15.3393C2.16051 16.227 2.88004 16.9465 3.76765 16.9465H6.66051V9.87504H3.76765ZM23.3748 11.4822C23.3748 10.5945 22.6553 9.87504 21.7676 9.87504H18.8748V16.9465H21.7676C22.6553 16.9465 23.3748 16.227 23.3748 15.3393V11.4822Z" fill="#DCC27E"/>
</svg>
