<svg width="20" height="17" viewBox="0 0 20 17" fill="none" xmlns="http://www.w3.org/2000/svg">
<path fill-rule="evenodd" clip-rule="evenodd" d="M4.54629 10.2387C4.58663 10.2523 4.62735 10.2619 4.66803 10.2678C4.7124 10.3721 4.76972 10.507 4.8366 10.6647C4.99981 11.0496 5.21972 11.5702 5.4467 12.1133C5.90962 13.2209 6.37655 14.3626 6.47968 14.6894C6.60734 15.0934 6.74229 15.3681 6.8896 15.5556C6.96578 15.6526 7.05387 15.7372 7.15695 15.8013C7.20884 15.8336 7.26367 15.86 7.32088 15.8798C7.3234 15.8807 7.32592 15.8815 7.32843 15.8824C7.62339 15.9937 7.8923 15.9473 8.06067 15.8906C8.15075 15.8602 8.22364 15.8236 8.2753 15.794C8.30164 15.7788 8.32389 15.7647 8.34164 15.7527L8.34583 15.7499L10.9507 14.1254L13.9596 16.4322C14.004 16.4662 14.0524 16.4948 14.1037 16.5172C14.4652 16.6749 14.8152 16.7299 15.1445 16.685C15.4731 16.6401 15.7342 16.502 15.9285 16.3465C16.1187 16.1943 16.2476 16.0238 16.328 15.8972C16.369 15.8325 16.3998 15.7753 16.4215 15.7315C16.4324 15.7094 16.4412 15.6905 16.4479 15.6753L16.4567 15.6552L16.4599 15.6472L16.4613 15.6439L16.4619 15.6423L16.4625 15.6409C16.4783 15.6013 16.4904 15.5604 16.4987 15.5187L19.2456 1.6699C19.2544 1.62562 19.2588 1.58056 19.2588 1.53541C19.2588 1.12986 19.106 0.744227 18.7467 0.51022C18.4396 0.310214 18.0975 0.301606 17.8812 0.318012C17.6481 0.335717 17.4327 0.393295 17.288 0.439296C17.2128 0.463242 17.1498 0.486339 17.1043 0.503962C17.0815 0.512819 17.0627 0.520423 17.0488 0.52622L17.0383 0.530626L1.63349 6.5737L1.6315 6.57443C1.62169 6.57803 1.60908 6.58273 1.5941 6.58853C1.56428 6.60015 1.5243 6.61646 1.47762 6.63766C1.38657 6.67895 1.25885 6.74338 1.12777 6.83315C0.918376 6.97656 0.436805 7.3693 0.517894 8.01752C0.582588 8.53467 0.936865 8.85229 1.15271 9.00501C1.27123 9.08888 1.38384 9.14879 1.46584 9.18787C1.50388 9.20594 1.58287 9.23801 1.61713 9.25202L1.62579 9.25552L4.54629 10.2387ZM17.5774 1.80366L17.5752 1.8046C17.5676 1.80794 17.5598 1.81112 17.5521 1.81418L2.12858 7.86461C2.12052 7.86774 2.11241 7.87078 2.10424 7.87364L2.09566 7.87687C2.08579 7.88074 2.06918 7.88747 2.04834 7.89687C2.03651 7.90221 2.02417 7.90811 2.01159 7.91438C2.02888 7.92415 2.04541 7.93254 2.06011 7.93954C2.07423 7.94627 2.08499 7.95088 2.09088 7.95328L4.9874 8.92842C5.04041 8.9463 5.08983 8.96989 5.1352 8.99847L14.6993 3.39967L14.7082 3.39438C14.7152 3.39026 14.7244 3.38497 14.7353 3.37876C14.7571 3.36646 14.787 3.35008 14.8226 3.33197C14.889 3.29819 14.9952 3.24804 15.1148 3.21106C15.1981 3.18532 15.4437 3.11279 15.7093 3.19797C15.8732 3.25053 16.0428 3.36354 16.1532 3.55497C16.208 3.65008 16.2372 3.74562 16.2513 3.83308C16.2889 3.97086 16.283 4.10691 16.2536 4.22436C16.1902 4.47737 16.0124 4.67472 15.8507 4.82567C15.7121 4.95509 13.9191 6.68402 12.1503 8.3908C11.2681 9.24188 10.395 10.0847 9.74248 10.7146L9.3138 11.1284L14.7259 15.2776C14.85 15.3221 14.9234 15.3198 14.9574 15.3151C14.9978 15.3096 15.0309 15.294 15.0647 15.267C15.1025 15.2368 15.1356 15.1959 15.1603 15.1569L15.1613 15.1553L17.8255 1.72362C17.7859 1.73312 17.7459 1.74444 17.7074 1.7567C17.6637 1.77059 17.6278 1.78382 17.6039 1.79307C17.5921 1.79765 17.5836 1.80112 17.579 1.80304L17.5774 1.80366ZM9.77879 13.227L8.69904 12.3991L8.43737 14.0634L9.77879 13.227ZM7.70852 10.7565L8.78226 9.71987C9.43491 9.0899 10.3081 8.24711 11.1903 7.39584L12.0866 6.53111L6.0772 10.049L6.10944 10.125C6.27322 10.5113 6.49411 11.0342 6.72231 11.5802C6.89294 11.9884 7.07137 12.4183 7.23389 12.8163L7.49475 11.1569C7.5199 10.9969 7.59806 10.8584 7.70852 10.7565Z" fill="#DEC27F"/>
</svg>
