<svg width="27" height="22" viewBox="0 0 27 22" fill="none" xmlns="http://www.w3.org/2000/svg">
<path fill-rule="evenodd" clip-rule="evenodd" d="M16.9736 0.415862C17.5889 0.310449 18.278 0.275247 18.9266 0.384981C20.085 0.580941 21.1549 1.1193 22.0007 1.92643C22.5535 1.93893 23.0968 1.83001 23.5775 1.67475C23.9844 1.54335 24.3281 1.38468 24.5689 1.25922C24.6886 1.19684 24.7811 1.14363 24.8413 1.1076C24.8713 1.08963 24.8932 1.07601 24.9062 1.06779L24.9177 1.06045C25.2769 0.821098 25.7553 0.867691 26.0615 1.17214C26.3676 1.47667 26.417 1.95473 26.1794 2.31535C25.928 2.69701 25.5789 3.37741 25.1879 4.13976C25.1264 4.25962 25.0638 4.38151 25.0005 4.50458C24.7762 4.94034 24.5462 5.38074 24.3318 5.75858C24.1972 5.99583 24.0532 6.2367 23.9081 6.44484V6.77625C23.9173 7.99359 23.7777 9.20462 23.4943 10.3827C23.316 11.1239 23.0808 11.8522 22.79 12.5608C22.0366 14.3968 20.9249 16.0642 19.5198 17.4657C18.1146 18.8672 16.4443 19.9747 14.6065 20.7234C12.7703 21.4715 10.8034 21.8465 8.82079 21.8265C5.94662 21.8291 3.13291 21.001 0.718252 19.4419C0.362599 19.2123 0.212857 18.7674 0.357321 18.3694C0.501773 17.9715 0.902094 17.7262 1.32223 17.7782C1.68583 17.8232 2.0519 17.8451 2.41827 17.844C3.73465 17.8403 5.02597 17.5494 6.20485 17.0015C5.83013 16.8309 5.47239 16.6205 5.13809 16.3728C4.15549 15.6441 3.42444 14.6273 3.04667 13.4639C2.9485 13.1615 3.01561 12.8298 3.22361 12.5894C3.22732 12.5851 3.23109 12.5809 3.23489 12.5767C3.01272 12.3785 2.80484 12.1628 2.61345 11.9308C1.75239 10.8871 1.27825 9.57807 1.27126 8.22498L1.27123 8.22028L1.27124 8.15976C1.27124 7.83791 1.44163 7.54014 1.71908 7.37705C1.78942 7.33571 1.86397 7.30459 1.94065 7.28372C1.5311 6.46652 1.3181 5.56413 1.31967 4.64866C1.31918 3.61153 1.5901 2.5923 2.10549 1.69228C2.25428 1.43245 2.5216 1.26269 2.82003 1.23851C3.11845 1.21432 3.40962 1.33884 3.59829 1.57131C4.76349 3.00701 6.21769 4.18153 7.8664 5.01857C8.71394 5.44885 9.60313 5.78502 10.518 6.0228C11.031 6.15612 11.552 6.25852 12.0783 6.32925C12.0551 5.45372 12.228 4.57867 12.5909 3.77012C13.1231 2.58401 14.0339 1.60812 15.1807 0.995474C15.6662 0.736034 16.3108 0.529373 16.9736 0.415862ZM3.32099 9.55228C3.47794 9.99401 3.71141 10.4084 4.0141 10.7753C4.60887 11.4963 5.43438 11.9896 6.35101 12.172C6.75931 12.2532 7.06004 12.6016 7.08066 13.0174C7.10126 13.4332 6.83646 13.8097 6.43821 13.931C6.10834 14.0314 5.77038 14.1013 5.42859 14.1402C5.65445 14.4313 5.92014 14.6921 6.21963 14.9142C6.89896 15.4179 7.71842 15.6973 8.56399 15.7136C8.94762 15.721 9.2852 15.9688 9.40725 16.3326C9.5293 16.6963 9.40948 17.0975 9.10793 17.3349C7.83788 18.3342 6.36927 19.0311 4.81308 19.3867C6.10288 19.7999 7.45557 20.0124 8.82382 20.0107H8.83436C10.5776 20.0289 12.3069 19.6995 13.9214 19.0418C15.536 18.384 17.0031 17.4113 18.2375 16.18C19.4718 14.9489 20.4483 13.4842 21.1102 11.8714C21.3656 11.249 21.5723 10.6092 21.7289 9.95805C21.978 8.92208 22.1007 7.85728 22.0923 6.78685V6.77976V6.13818C22.0923 5.91803 22.1723 5.7054 22.3173 5.53983C22.4012 5.44415 22.5479 5.22315 22.7525 4.86254C22.9469 4.51981 23.1622 4.10834 23.386 3.67355C23.3995 3.64725 23.4131 3.62082 23.4268 3.59426C22.8462 3.72033 22.1882 3.78641 21.4984 3.71187C21.28 3.68825 21.0775 3.58623 20.9285 3.4247C20.3198 2.76455 19.5092 2.32512 18.6238 2.17533C18.231 2.10887 17.7559 2.12407 17.2801 2.20559C16.7631 2.29415 16.3131 2.44912 16.0363 2.59701C15.2442 3.02018 14.6151 3.69425 14.2475 4.51352C13.8798 5.33279 13.7945 6.2509 14.0049 7.12388C14.072 7.4022 14.0039 7.69585 13.8211 7.9162C13.6383 8.13655 13.3623 8.2578 13.0764 8.24333C12.0555 8.19169 11.0453 8.03596 10.0613 7.78021C9.02036 7.50967 8.00868 7.1272 7.0444 6.63765C5.62472 5.91689 4.33182 4.97619 3.21228 3.8532C3.1612 4.11421 3.13527 4.38055 3.13546 4.64862V4.65095C3.13418 5.31761 3.29779 5.97424 3.61169 6.56237C3.92559 7.1505 4.38005 7.65189 4.93461 8.02189C5.27116 8.24644 5.41852 8.66654 5.29594 9.05222C5.17338 9.43777 4.81046 9.69573 4.40602 9.68472C4.03973 9.67467 3.67649 9.63012 3.32099 9.55228Z" fill="#DEC27F"/>
</svg>
