<svg width="26" height="26" viewBox="0 0 26 26" fill="none" xmlns="http://www.w3.org/2000/svg">
<path fill-rule="evenodd" clip-rule="evenodd" d="M7.06348 7.14873C7.06348 3.75288 9.81636 1 13.2122 1C16.608 1 19.3609 3.75288 19.3609 7.14873C19.3609 10.5446 16.608 13.2975 13.2122 13.2975C9.81636 13.2975 7.06348 10.5446 7.06348 7.14873ZM13.2122 3.17014C11.0149 3.17014 9.23362 4.95142 9.23362 7.14873C9.23362 9.34604 11.0149 11.1273 13.2122 11.1273C15.4095 11.1273 17.1908 9.34604 17.1908 7.14873C17.1908 4.95142 15.4095 3.17014 13.2122 3.17014Z" fill="#DCC27E"/>
<path fill-rule="evenodd" clip-rule="evenodd" d="M7.42535 17.6377C5.62755 17.6377 4.17014 19.0951 4.17014 20.8929V22.6121C4.17014 22.6382 4.18911 22.6605 4.21495 22.6647C10.1738 23.6377 16.251 23.6377 22.2098 22.6647C22.2357 22.6605 22.2546 22.6382 22.2546 22.6121V20.8929C22.2546 19.0951 20.7972 17.6377 18.9994 17.6377H18.5062C18.4682 17.6377 18.4303 17.6437 18.394 17.6555L17.1418 18.0645C14.5885 18.8981 11.8362 18.8981 9.28296 18.0645L8.03077 17.6555C7.99453 17.6437 7.95663 17.6377 7.9185 17.6377H7.42535ZM2 20.8929C2 17.8965 4.42901 15.4675 7.42535 15.4675H7.9185C8.18542 15.4675 8.45065 15.5098 8.70438 15.5925L9.95658 16.0015C12.0722 16.6922 14.3526 16.6922 16.4682 16.0015L17.7203 15.5925C17.9741 15.5098 18.2393 15.4675 18.5062 15.4675H18.9994C21.9958 15.4675 24.4248 17.8965 24.4248 20.8929V22.6121C24.4248 23.7018 23.635 24.6309 22.5595 24.8065C16.3691 25.8172 10.0557 25.8172 3.86526 24.8065C2.78976 24.6309 2 23.7018 2 22.6121V20.8929Z" fill="#DCC27E"/>
</svg>
