<svg width="30" height="29" viewBox="0 0 30 29" fill="none" xmlns="http://www.w3.org/2000/svg">
<path fill-rule="evenodd" clip-rule="evenodd" d="M12 0.375C8.47919 0.375 5.625 3.22919 5.625 6.75C5.625 10.2708 8.47919 13.125 12 13.125C15.5208 13.125 18.375 10.2708 18.375 6.75C18.375 3.22919 15.5208 0.375 12 0.375ZM7.875 6.75C7.875 4.47183 9.72183 2.625 12 2.625C14.2782 2.625 16.125 4.47183 16.125 6.75C16.125 9.02817 14.2782 10.875 12 10.875C9.72183 10.875 7.875 9.02817 7.875 6.75Z" fill="white"/>
<path d="M2.625 21C2.625 19.1361 4.13604 17.625 6 17.625H6.5113C6.55083 17.625 6.59013 17.6313 6.62771 17.6435L7.92597 18.0675C8.94526 18.4004 9.99514 18.6049 11.0521 18.6814C11.2745 18.6976 11.4697 18.5414 11.5199 18.3242C11.6333 17.8341 11.781 17.3571 11.9603 16.896C12.0394 16.6925 11.8907 16.4675 11.6724 16.4609C10.6425 16.4298 9.61596 16.2524 8.62438 15.9287L7.32611 15.5046C7.06304 15.4188 6.78804 15.375 6.5113 15.375H6C2.89339 15.375 0.375 17.8933 0.375 21V22.7825C0.375 23.9123 1.19382 24.8755 2.30891 25.0576C5.54613 25.5862 8.81577 25.8482 12.0852 25.8435C12.3132 25.8432 12.4566 25.5968 12.3545 25.3927C12.1343 24.9527 11.9439 24.4949 11.7864 24.022C11.7021 23.7693 11.4703 23.5917 11.2038 23.5881C8.34969 23.5488 5.49774 23.2984 2.67145 22.837C2.64467 22.8327 2.625 22.8096 2.625 22.7825V21Z" fill="white"/>
<path d="M22.875 18.45C22.875 17.8285 22.3713 17.325 21.75 17.325C21.1287 17.325 20.625 17.8285 20.625 18.45V21.109C20.625 21.4689 20.7972 21.8071 21.0883 22.0188L22.5884 23.1097C23.0909 23.4751 23.7943 23.3641 24.1599 22.8616C24.5253 22.3591 24.4141 21.6555 23.9116 21.2901L22.875 20.5362V18.45Z" fill="white"/>
<path fill-rule="evenodd" clip-rule="evenodd" d="M21.75 28.95C26.3064 28.95 30 25.2562 30 20.7C30 16.1436 26.3064 12.45 21.75 12.45C17.1936 12.45 13.5 16.1436 13.5 20.7C13.5 25.2562 17.1936 28.95 21.75 28.95ZM21.75 26.7C25.0637 26.7 27.75 24.0136 27.75 20.7C27.75 17.3862 25.0637 14.7 21.75 14.7C18.4363 14.7 15.75 17.3862 15.75 20.7C15.75 24.0136 18.4363 26.7 21.75 26.7Z" fill="white"/>
</svg>
