<svg width="34" height="22" viewBox="0 0 34 22" fill="none" xmlns="http://www.w3.org/2000/svg">
<path fill-rule="evenodd" clip-rule="evenodd" d="M33.6447 17.4934C32.8628 15.9187 31.8326 14.4802 30.5936 13.2331C30.172 12.7429 29.6776 12.2592 29.2917 11.8817L29.2377 11.829C29.0387 11.634 28.8742 11.4723 28.7397 11.333C30.4337 8.97726 31.8837 6.4548 33.0668 3.80444L33.1145 3.69751L33.148 3.58528C33.3034 3.06363 33.4825 2.07165 32.849 1.17518C32.1942 0.248599 31.1457 0.08149 30.4437 0.08149H27.2135C26.5401 0.0506268 25.8733 0.232672 25.3083 0.602785C24.7391 0.975687 24.3037 1.51962 24.064 2.15546C23.3684 3.81245 22.498 5.38854 21.4686 6.85735V3.07199C21.4686 2.58268 21.4226 1.76416 20.8987 1.07329C20.2713 0.246098 19.3641 0.08149 18.7344 0.08149H13.6089C12.9486 0.0662237 12.3064 0.302333 11.8128 0.743099C11.3074 1.19447 10.9976 1.82499 10.9493 2.50093L10.9447 2.56496V2.62916C10.9447 3.32703 11.2212 3.84182 11.4421 4.16557C11.5411 4.31051 11.6469 4.44246 11.7137 4.52579L11.7291 4.54503C11.8004 4.63389 11.8479 4.69321 11.8957 4.75814C12.0212 4.92894 12.2018 5.19229 12.2529 5.87375V7.99113C11.3693 6.53858 10.4372 4.60563 9.73584 2.5412L9.72508 2.50951L9.71314 2.47825C9.53827 2.02023 9.25779 1.35381 8.69603 0.843825C8.03976 0.248053 7.26354 0.08149 6.55762 0.08149H3.28019C2.56602 0.08149 1.70506 0.248571 1.06265 0.926237C0.430924 1.59265 0.359375 2.39116 0.359375 2.81573V3.0071L0.399681 3.19418C1.30747 7.40767 3.17797 11.3534 5.86422 14.7229C7.0821 16.6434 8.73235 18.2533 10.6837 19.4233C12.6662 20.6121 14.9027 21.3127 17.209 21.4677L17.2691 21.4717H17.3295C18.3728 21.4717 19.4606 21.3817 20.2785 20.8366C21.382 20.1014 21.4686 18.972 21.4686 18.4093V16.7735C21.7518 17.0024 22.1031 17.3106 22.5332 17.7247C23.0532 18.2451 23.4672 18.6961 23.8223 19.0896L24.0117 19.3004L24.0129 19.3015C24.2886 19.6086 24.56 19.9109 24.8071 20.1593C25.1177 20.4715 25.5007 20.8156 25.9821 21.0698C26.5033 21.3451 27.0504 21.4696 27.6316 21.4696H30.9113C31.6021 21.4696 32.5932 21.3061 33.2899 20.4984C34.0492 19.6181 33.9913 18.5391 33.7525 17.7637L33.7095 17.6243L33.6447 17.4934ZM25.4232 17.6452C25.054 17.236 24.6089 16.7508 24.0462 16.1883L24.0416 16.1837C22.0922 14.3042 21.1813 13.9767 20.5373 13.9767C20.1947 13.9767 19.8156 14.0153 19.5697 14.3216C19.4535 14.4662 19.3926 14.6407 19.3584 14.8226C19.3242 15.0041 19.3124 15.2173 19.3124 15.4601V18.4093C19.3124 18.7755 19.2522 18.9294 19.0828 19.0423C18.8571 19.1927 18.3748 19.3146 17.3416 19.3155C15.3802 19.1818 13.4786 18.5851 11.7925 17.5741C10.103 16.5611 8.67832 15.1611 7.63581 13.4896L7.62447 13.4715L7.61104 13.4546C5.10797 10.3391 3.36379 6.68446 2.51606 2.77933C2.52066 2.59108 2.56144 2.4794 2.62752 2.40968C2.69561 2.33785 2.86061 2.23774 3.28019 2.23774H6.55762C6.9222 2.23774 7.11088 2.31705 7.24668 2.44033C7.40064 2.58009 7.53417 2.81744 7.69639 3.24123C8.50083 5.60733 9.58867 7.82007 10.6188 9.44703C11.1337 10.2602 11.6404 10.9371 12.097 11.4154C12.3249 11.6543 12.5484 11.8521 12.7617 11.9928C12.9681 12.129 13.2022 12.2364 13.4429 12.2364C13.5699 12.2364 13.7185 12.2233 13.8615 12.1599C14.0154 12.0919 14.1348 11.9783 14.2191 11.8261C14.3683 11.557 14.4092 11.1584 14.4092 10.6361V5.8008L14.4085 5.78946C14.334 4.61309 13.9788 3.95137 13.633 3.48095C13.5572 3.37785 13.4824 3.28473 13.417 3.20324L13.3991 3.18091C13.3273 3.09136 13.2702 3.01899 13.2232 2.95018C13.1372 2.8241 13.1038 2.73619 13.1011 2.64199C13.1123 2.53018 13.165 2.42644 13.2491 2.35137C13.3363 2.27346 13.4505 2.2329 13.5674 2.23774H18.7344C19.0306 2.23774 19.1304 2.31002 19.1806 2.37623C19.2514 2.46969 19.3124 2.66409 19.3124 3.07199V9.58187C19.3124 10.3551 19.6689 10.8786 20.1865 10.8786C20.7822 10.8786 21.2116 10.5173 21.9626 9.7663L21.9751 9.75379L21.9863 9.74C23.6693 7.68768 25.0448 5.40116 26.0686 2.95231L26.0751 2.93395C26.1522 2.71756 26.2978 2.53231 26.49 2.40644C26.682 2.28059 26.91 2.22104 27.1391 2.23689L27.1516 2.23774H30.4437C30.8926 2.23774 31.0404 2.35201 31.0881 2.41958C31.1388 2.49147 31.1742 2.64556 31.0879 2.94774C29.9076 5.58757 28.448 8.09334 26.7346 10.423L26.7238 10.4393C26.5575 10.6938 26.3751 10.9752 26.3487 11.2984C26.3203 11.6454 26.4706 11.9609 26.7332 12.299C26.9247 12.5821 27.3195 12.9686 27.7202 13.3608L27.758 13.3977C28.178 13.8088 28.633 14.2542 28.9983 14.6854L29.008 14.6968L29.0187 14.7074C30.1076 15.7936 31.0131 17.0493 31.6997 18.4252C31.8094 18.7998 31.7423 18.9913 31.6571 19.0901C31.5574 19.2056 31.3341 19.3133 30.9113 19.3133H27.6316C27.3755 19.3133 27.1778 19.2629 26.9889 19.1631C26.7921 19.0592 26.5897 18.8939 26.3359 18.6387C26.1315 18.4331 25.9081 18.1844 25.6355 17.8813C25.5679 17.8061 25.4974 17.7273 25.4232 17.6452Z" fill="#DEC27F"/>
</svg>
