<svg width="20" height="20" viewBox="0 0 20 20" fill="none" xmlns="http://www.w3.org/2000/svg">
<path d="M13.0957 10.2688C13.0957 9.46075 13.7508 8.80566 14.5588 8.80566C15.3668 8.80566 16.0219 9.46075 16.0219 10.2688C16.0219 11.0768 15.3668 11.7319 14.5588 11.7319C13.7508 11.7319 13.0957 11.0768 13.0957 10.2688Z" fill="#212121"/>
<path fill-rule="evenodd" clip-rule="evenodd" d="M17.9149 5.07371C17.2734 3.56605 15.8557 2.48225 14.1687 2.30472L13.5329 2.23782C10.3215 1.89988 7.08243 1.92217 3.87602 2.30425L3.45471 2.35446C1.82694 2.54843 0.537207 3.82018 0.320393 5.44505C-0.106798 8.64661 -0.106798 11.8908 0.320393 15.0924C0.537207 16.7172 1.82694 17.989 3.45471 18.183L3.87602 18.2332C7.08243 18.6153 10.3215 18.6375 13.5329 18.2997L14.1687 18.2327C15.8557 18.0552 17.2734 16.9714 17.9149 15.4638C18.9286 15.162 19.7023 14.2831 19.8293 13.1973C20.0569 11.2515 20.0569 9.2859 19.8293 7.34019C19.7023 6.25434 18.9286 5.37552 17.9149 5.07371ZM13.3796 3.69276C10.2767 3.36624 7.1471 3.38778 4.04902 3.75695L3.6277 3.80716C2.6632 3.92209 1.89899 4.67564 1.77053 5.63843C1.36047 8.71164 1.36047 11.8256 1.77053 14.8988C1.89899 15.8616 2.66321 16.6151 3.6277 16.73L4.04902 16.7802C7.1471 17.1494 10.2767 17.171 13.3796 16.8444L14.0155 16.7775C14.845 16.6902 15.5791 16.2813 16.0878 15.6743C14.6168 15.76 13.1262 15.7217 11.6725 15.5593C10.4344 15.4209 9.43309 14.4459 9.28707 13.1972C9.0595 11.2514 9.0595 9.28576 9.28707 7.34005C9.43309 6.09128 10.4344 5.11631 11.6725 4.97793C13.1262 4.81548 14.6168 4.77714 16.0878 4.86292C15.5791 4.25591 14.845 3.84697 14.0155 3.75968L13.3796 3.69276ZM16.7785 6.38125C16.7791 6.38499 16.7797 6.38874 16.7803 6.39248L16.7862 6.43041L16.98 6.40032C17.0802 6.41025 17.1803 6.42078 17.2802 6.43195C17.8532 6.49599 18.3094 6.94871 18.375 7.50997C18.5894 9.34278 18.5894 11.1943 18.375 13.0271C18.3094 13.5883 17.8532 14.0411 17.2802 14.1051C17.1803 14.1163 17.0801 14.1269 16.98 14.1368L16.7862 14.1067L16.7803 14.1446C16.7797 14.1483 16.7791 14.1521 16.7785 14.1558C15.1411 14.304 13.462 14.2871 11.8342 14.1051C11.2612 14.0411 10.8049 13.5883 10.7393 13.0271C10.5249 11.1943 10.5249 9.34278 10.7393 7.50997C10.8049 6.94871 11.2612 6.49599 11.8342 6.43195C13.462 6.25002 15.1411 6.23312 16.7785 6.38125Z" fill="#212121"/>
</svg>
