<svg width="27" height="26" viewBox="0 0 27 26" fill="none" xmlns="http://www.w3.org/2000/svg">
<path d="M17.1216 13.101C17.1216 12.0162 17.9732 11.1367 19.0236 11.1367C20.0741 11.1367 20.9257 12.0162 20.9257 13.101C20.9257 14.1858 20.0741 15.0653 19.0236 15.0653C17.9732 15.0653 17.1216 14.1858 17.1216 13.101Z" fill="#DCC27E"/>
<path fill-rule="evenodd" clip-rule="evenodd" d="M23.3875 6.12656C22.5535 4.10248 20.7106 2.64743 18.5175 2.4091L17.6909 2.31928C13.5161 1.86558 9.3053 1.8955 5.13698 2.40847L4.58926 2.47587C2.47317 2.73628 0.796513 4.44365 0.514655 6.62511C-0.0406924 10.9233 -0.0406924 15.2788 0.514655 19.577C0.796513 21.7585 2.47317 23.4658 4.58926 23.7263L5.13698 23.7937C9.3053 24.3067 13.5161 24.3365 17.6909 23.8829L18.5175 23.7931C20.7106 23.5547 22.5535 22.0997 23.3875 20.0756C24.7054 19.6704 25.7112 18.4905 25.8763 17.0328C26.1721 14.4205 26.1721 11.7816 25.8763 9.1694C25.7112 7.71161 24.7054 6.53176 23.3875 6.12656ZM17.4921 4.27284C13.4583 3.83448 9.38983 3.86339 5.36233 4.35902L4.81462 4.42642C3.56076 4.58072 2.5673 5.5924 2.4003 6.88498C1.86722 11.0109 1.86722 15.1915 2.4003 19.3173C2.5673 20.6099 3.56078 21.6215 4.81462 21.7758L5.36233 21.8432C9.38983 22.3389 13.4583 22.3678 17.4921 21.9294L18.3187 21.8396C19.3972 21.7224 20.3515 21.1734 21.0128 20.3585C19.1005 20.4736 17.1626 20.4222 15.2729 20.2041C13.6634 20.0183 12.3616 18.7093 12.1718 17.0328C11.876 14.4206 11.876 11.7817 12.1718 9.16947C12.3616 7.49294 13.6634 6.18401 15.2729 5.99823C17.1626 5.78013 19.1005 5.72867 21.0128 5.84383C20.3515 5.02888 19.3972 4.47988 18.3187 4.36268L17.4921 4.27284ZM21.9116 7.88217C21.9124 7.8872 21.9131 7.89222 21.9139 7.89725L21.9215 7.94817L22.1735 7.90777C22.3038 7.9211 22.4339 7.93524 22.5638 7.95024C23.3086 8.03621 23.9017 8.64401 23.987 9.39752C24.2657 11.8581 24.2657 14.3439 23.987 16.8045C23.9017 17.558 23.3086 18.1658 22.5638 18.2518C22.4339 18.2668 22.3037 18.281 22.1735 18.2943L21.9215 18.2538L21.9139 18.3048C21.9131 18.3098 21.9124 18.3149 21.9116 18.3198C19.783 18.5188 17.6001 18.4961 15.484 18.2518C14.7391 18.1658 14.1459 17.558 14.0606 16.8045C13.7819 14.3439 13.7819 11.8581 14.0606 9.39752C14.1459 8.64401 14.7391 8.03621 15.484 7.95024C17.6001 7.70598 19.783 7.6833 21.9116 7.88217Z" fill="#DCC27E"/>
</svg>
